<svg width="2000" height="2000" xmlns="http://www.w3.org/2000/svg" xml:space="preserve" version="1.1">

 <g>
  <title>Layer 1</title>
  <g stroke="null" id="svg_6">
   <polygon stroke="null" id="svg_1" fill="#910000" clip-rule="evenodd" fill-rule="evenodd" points="423.49303426491633,895.9788900268904 642.6643058698533,895.9788900268904 876.1293810819329,1370.8500289916992 656.958109476996,1370.8500289916992 423.49303426491633,895.9788900268904 " class="st0"/>
   <polygon stroke="null" id="svg_2" fill="#A80000" clip-rule="evenodd" fill-rule="evenodd" points="872.5559604726145,772.8935676468245 1091.3301584165451,772.8935676468245 876.1293810819329,1370.8500289916992 656.958109476996,1370.8500289916992 872.5559604726145,772.8935676468245 " class="st1"/>
   <polygon stroke="null" id="svg_3" fill="#BF0000" clip-rule="evenodd" fill-rule="evenodd" points="872.5559604726145,772.8935676468245 1091.3301584165451,772.8935676468245 1341.4712974470017,1370.8500289916992 1122.3000864269993,1370.8500289916992 872.5559604726145,772.8935676468245 " class="st2"/>
   <polygon stroke="null" id="svg_4" fill="#F40000" clip-rule="evenodd" fill-rule="evenodd" points="1341.4712974470017,1370.8500289916992 1122.3000864269993,1370.8500289916992 1378.396966862943,641.4702436500374 1595.9800044087892,641.4702436500374 1341.4712974470017,1370.8500289916992 " class="st3"/>
   <path stroke="null" id="svg_5" fill="#FFFFFF" d="m1001.19996,1996.59993c-549.11936,0 -995.79996,-446.68061 -995.79996,-995.79996s446.68061,-995.79996 995.79996,-995.79996s995.79996,446.68061 995.79996,995.79996s-446.68061,995.79996 -995.79996,995.79996zm0,-1806.97194c-447.07765,0 -810.77493,364.09432 -810.77493,811.17198c0,447.07765 363.69728,810.77493 810.77493,810.77493s810.77493,-363.69728 810.77493,-810.77493c0.39705,-447.07765 -363.69728,-811.17198 -810.77493,-811.17198z" class="st4"/>
  </g>
 </g>
</svg>